<svg id="Layer_1" data-name="Layer 1" xmlns="http://www.w3.org/2000/svg" width="512" height="512" viewBox="0 0 512 512">
  <path id="Logo" d="M473.88,286.41l-.35-7.15-.57-7.07-.79-7-.06-.42-.95-6.52-1.22-6.87-1.44-6.78-1.67-6.7L465,231.24l-1.87-5.93-.18-.59-2.25-6.45-2.46-6.34-2.64-6.26-2.83-6.15-3-6-3.19-6-3.37-5.81L439.65,176l-.67-1-.1-.16,0,0-.4-.61v0l-.37-.53-.28-.44-.55-.84v0L437,172l-.63-1-.38-.57v0l-.61-.85-.63-.87-.43-.61-.89-1.24-.29-.41-1-1.46,0,0-.2-.24L430.6,163l-.13-.16-1.32-1.75L428,159.63l-4.21-5.2-2-2.3-2.37-2.78L415,144.42l-4.65-4.8-4.8-4.65-4.93-4.51-5.08-4.34-5.22-4.21-5.32-4L379.53,114,374,110.29l-5.71-3.53-5.83-3.37-5.93-3.19-6.05-3-6.16-2.82L338,91.73l-6.36-2.44L325.24,87,318.7,85l-6.62-1.85-6.7-1.65L298.58,80l-6.87-1.24-6.93-1-7-.8-7.07-.56-7.13-.35L256.35,76l-7.19.12-7.13.35-7.09.56-7,.8-6.92,1L214.14,80l-6.8,1.44-6.7,1.65L194,85,187.48,87,181,89.29l-6.36,2.44-6.26,2.64-6.13,2.82-6,3-5.93,3.19-5.83,3.37-5.71,3.53L133.18,114l-5.46,3.88-5.34,4-5.2,4.21-5.08,4.34L107.17,135l-4.8,4.65-4.65,4.8-4.51,4.93-2.37,2.78-2,2.3-4.19,5.2-1.11,1.48-1.32,1.75-.13.16-1.26,1.67-.2.24,0,0-1.06,1.48-.26.39-.89,1.24-.43.61-.65.91-.57.81,0,0-.38.57-.63,1-.29.4v0l-.55.84-.28.44-.37.53-.4.61v0l0,0-.11.14-.67,1-3.55,5.71-3.35,5.81-3.19,6-3,6-2.82,6.15-2.62,6.26L52,218.27l-2.25,6.45-.2.65-.17.51-.48,1.55-.8,2.51-.4,1.3-.69,2.46-1.18,4.19-.16.67-1.49,6-.06.28-1.38,6.5-.34,1.95-.88,4.92-1,6.52-.06.42-.8,7-.56,7.07-.37,7.15-.1,7.19.1,7.19.37,7.15.56,7.07.8,7,.06.43,1,6.52.88,4.91.34,1.95,1.38,6.5.06.29,1.49,6,.16.67,1.18,4.19.69,2.45.4,1.3.8,2.52.48,1.54.17.51.2.65L52,368.93l2.46,6.34,2.62,6.25,2.82,6.16,3,6,3.19,6,3.35,5.81,3.55,5.71.67,1,.11.15,0,0v0l.4.61.37.52.28.45.55.83v0l.29.41.63.95.38.57,0,0,.57.82.65.91.43.61.89,1.24.26.38,1.06,1.49,0,0,.2.24,1.26,1.67.13.16,1.32,1.75,1.11,1.48,4.19,5.2,2,2.29H212.92l1.69,0,1.79-.08,1.77-.16,1.74-.18,1.73-.27,1.72-.3,1.71-.37,1.67-.4,1.66-.47,1.63-.51,1.62-.57,1.59-.61,1.56-.67,1.54-.69,1.51-.77,1.48-.79,1.46-.83,1.42-.9,1.4-.93,1.37-1,1.34-1,1.3-1,1.28-1.1,1.21-1.11,1.2-1.18,1.18-1.2,1.12-1.22,1.07-1.28,1.06-1.3.61-.81.63.81,1,1.3,1.1,1.28,1.12,1.22,1.16,1.2,1.19,1.18,1.24,1.11,1.26,1.1,1.32,1,1.32,1,1.38,1,1.39.93,1.42.9,1.46.83,1.48.79,1.53.77,1.54.69,1.56.67,1.59.61,1.6.57,1.65.51,1.66.47,1.67.4,1.7.37,1.71.3,1.75.27,1.74.18,1.77.16,1.77.08,1.7,0H421.88l1.95-2.29,4.21-5.2,1.11-1.48,1.32-1.75.13-.16,1.26-1.67.2-.24,0,0,1-1.47.29-.4.89-1.24.43-.61.63-.87.61-.86v0l.38-.57.63-.95.29-.41v0l.55-.83.28-.45.37-.52v0l.4-.61h0v0l.1-.17.67-1,3.54-5.71,3.37-5.81,3.19-6,3-6,2.83-6.16,2.64-6.25,2.46-6.34,2.25-6.46.18-.59L465,356l1.85-6.64,1.67-6.7,1.44-6.79,1.22-6.86.95-6.52.06-.43.79-7,.57-7.07.35-7.15.12-7.19ZM266.59,294l-.21-.18-.22-.22-.37-.35-.3-.3-.79-.85-.06-.07-.86-.93-.42-.51-.39-.44-.77-1-.41-.55-.36-.49-.73-1.05-.61-1L260,286l-.67-1.12-.65-1.13-.43-.84-.16-.32-.55-1.16-.51-1.16-.47-1.17-.22-.57-.2.57-.47,1.17-.51,1.16-.55,1.16-.61,1.16-.63,1.13-.67,1.12-.69,1.1-.73,1.05-.77,1-.79,1-.81,1-.84.93-.87.92-.67.65-.22.22-.84.75-.08.08-.93.82-1,.77-1,.73-.94.65-.08.06-1,.67-1,.65-1.06.61-1.07.57-1.1.55-1.1.51-1.11.46-1.12.43-1.16.41-1.15.36-1.16.33-1.18.3-1.18.26-1.2.23-1.2.18-1.19.14-1.2.12-1.22.07-1.22,0h-1.22l-1.22,0-1.22-.09-1.21-.1-1.24-.16-1.22-.18-1.2-.23-1.22-.28-1.2-.3-1.22-.35-1.19-.39-1.18-.42-1.18-.49L203,301l-1.16-.55-1.15-.59-1.14-.62-1.28-.78-1.3-.79-1.32-.81-1.32-.87-1.34-.9-1.34-.93-.83-.59-.51-.37-1.36-1-1.36-1-1.36-1.05L184.81,289l-1.38-1.14-1.36-1.18-1.38-1.2-1.38-1.23L178,283l-1.36-1.32-1.36-1.34-1.36-1.39-1.36-1.42-1.34-1.44-1.34-1.48-1.32-1.53-1.33-1.54-1.29-1.58-1.3-1.63-1.28-1.64L162.05,265l-1.26-1.73-1.22-1.74-1.22-1.79-1.2-1.83L156,256l-1.15-1.89-1.12-1.92-1.12-1.95-1.08-2-1.05-2-1-2.07-1-2.07-1-2.13-.93-2.15-.92-2.18-.89-2.23-.85-2.24-.81-2.29-.8-2.32-.73-2.35-.71-2.38-.67-2.42,2.42-.63,2.41-.56,2.42-.53,2.4-.49,2.37-.43,2.38-.38,2.38-.35,2.33-.3,2.36-.27,2.31-.2,2.32-.18,2.3-.12,2.27-.11,2.25-.06h2.26l2.23,0,2.22,0,2.19.11,2.17.12,2.16.16,2.13.18,2.11.23,2.09.24,2.08.28,2.05.31,2,.34,2,.37,2,.39,2,.42,1.91.43,1.91.47,1.87.48,1.84.51,1.83.53,1.79.55,1.77.57,1.72.59,1.71.58,1.68.63,1.63.63,1.62.65,1.57.65,1.54.67,1.53.69,1.46.69,1.44.72,1.42.71,1.36.73,1.34.73,1.3.73,1.12.67,1.1.69.44.31.61.42,1,.77,1,.8,1,.81.3.26.63.57.92.87.87.9.83.91.82.94.77.95.73,1,.71,1,.69,1,.63,1,.61,1.06.59,1.08.53,1.07.5,1.12.49,1.12.43,1.11.12.35v0l0,0,.1-.35.45-1.11.47-1.12.5-1.12.37-.71.18-.36L259,246l.61-1.06.47-.75.18-.28.67-1,.71-1,.14-.19.61-.79.77-.95.19-.21L264,239l.71-.77.12-.14.87-.9.1-.1.8-.75,0,0,.46-.4.17-.17.3-.26,1-.81,1-.8,1-.77.61-.42.44-.31,1.1-.69,1.12-.67,1.3-.73,1.32-.73,1.38-.73,1.4-.71,1.44-.72,1.48-.69,1.53-.69,1.54-.67,1.56-.65,1.61-.65,1.64-.63,1.69-.63,1.71-.58,1.72-.59,1.77-.57,1.79-.55,1.83-.53,1.82-.51,1.89-.48,1.89-.47L308,218l1.95-.42,2-.39,2-.37,2-.34,2.05-.31,2.08-.28,2.09-.24,2.11-.23,2.13-.18,2.16-.16,2.17-.12,2.19-.11,2.22,0,2.23,0h2.23l2.28.06,2.27.11,2.3.12,2.31.18,2.32.2,2.34.27,2.35.3,2.36.35,2.37.38,2.4.43,2.4.49,2.41.53,2.42.56,2.42.63-.67,2.42-.71,2.38-.75,2.35-.78,2.32-.81,2.29-.85,2.24-.9,2.23-.91,2.18L365.3,240l-1,2.13-1,2.07-1,2.07-1.06,2-1.07,2L359,252.23l-1.14,1.92L356.73,256l-1.16,1.85-1.2,1.83-1.22,1.79-1.22,1.74L350.67,265l-1.26,1.69-1.28,1.64-1.3,1.63-1.3,1.58-1.32,1.54-1.32,1.53-1.34,1.48-1.34,1.44-1.36,1.42-1.36,1.39-1.36,1.34L334.77,283l-1.38,1.28L332,285.49l-1.38,1.2-1.36,1.18L327.9,289l-1.36,1.12-1.38,1.05-1.36,1-1.34,1-.53.37-.83.59-1.34.93-1.32.9-1.32.87-1.32.81-1.3.79-1.28.78-1.14.62-1.16.59-1.15.55-1.18.51-1.18.49-1.2.42-1.2.39-1.19.35-1.2.3-1.22.28-1.22.23-1.22.18-1.22.16-1.22.1-1.21.09-1.22,0h-1.22l-1.22,0-1.22-.07-1.2-.12L288,304.2l-1.19-.18-1.18-.23-1.18-.26-1.18-.3-1.18-.33-1.13-.36-1.16-.41-1.12-.43-1.12-.46-1.11-.51-1.08-.55-1.08-.57-1.05-.61-1-.65-1-.67-.09-.06-.91-.65-1-.73-1-.77-.93-.82-.08-.08-.17-.14Zm185.54,6.08-.31,6.42-.51,6.37-.73,6.3-.91,6.26-1.1,6.17-1.3,6.11-1.48,6-1.67,5.95-1.85,5.89-2,5.81L438,367.1l-2.38,5.63-2.54,5.54-2.7,5.43-2.86,5.36-3.05,5.24-3.17,5.12-3.35,5-3.47,4.92-3,3.94H300l-1.18,0-1.08-.06-1.07-.08-1-.12-1.06-.15-1-.18-1-.22-1-.25-1-.28-1-.31-1-.34-.95-.37-.94-.38-.93-.43-.89-.45-.9-.48-.87-.51-.85-.53-.84-.55-.83-.59-.79-.61-.77-.62-.78-.65-.73-.68-.73-.69-1.38-1.46-.65-.77-.63-.77-.59-.81-.59-.82-.55-.83-.54-.85-.51-.88-.47-.89-.45-.91-.42-.92-.41-.93-.36-1-.33-.95-.3-1-.29-1-.24-1-.22-1-.19-1-.14-1-.12-1.06-.08-1.06-.06-1.07h0l0-1v-60.3l1.19.57,1.73.73,1.75.69,1.76.63,1.79.59,1.81.53,1.81.46,1.83.41,1.84.37,1.87.28,1.85.24,1.89.21,1.87.12,1.89.08H294l1.88,0,1.91-.1,1.89-.16,1.89-.25,1.89-.26,1.89-.35,1.89-.42,1.87-.47,1.87-.53,1.86-.59,1.85-.65,1.83-.71,1.83-.79,1.81-.83,1.78-.92,1.79-1,1.77-1,1.76-1.1,1.77-1.13,1.79-1.22,1.77-1.26,1.78-1.32,1.79-1.38,1.77-1.44,1.76-1.49,1.79-1.54,1.75-1.61,1.77-1.64,1.76-1.71,1.75-1.74,1.75-1.81L352,295l1.28-1.42.45-.49,1.71-2,1.7-2,1.71-2.05L360.5,285l1.67-2.18,1.66-2.19,1.63-2.25,1.62-2.32,1.61-2.34,1.58-2.39,1.57-2.44,1.54-2.5,1.54-2.52,1.51-2.58,1.48-2.62,1.44-2.66,1.44-2.7,1.43-2.74,1.38-2.8,1.36-2.83,1.32-2.86,1.32-2.93,1.26-2.94,1.26-3,1.19-3,1.2-3.07,1.14-3.11,1.12-3.14,1.07-3.17,1.06-3.23,1-3.25,1-3.27.93-3.33-3.35-.9-3.31-.83-3.31-.79-3.31-.75-3.27-.69L380,200l-3.27-.61-3.23-.55-3.23-.51-3.21-.45-3.19-.4-3.16-.37-3.15-.32-3.13-.29-3.11-.22-3.06-.18-3.07-.15-3-.1-3-.08h-3l-3,0-2.93.06-2.9.1-2.87.15-2.84.16-2.8.22-2.77.27-2.74.28-2.72.33-2.66.36-2.64.41-2.6.44-2.56.47-2.52.51-2.5.55-2.43.57-2.42.61-2.36.63-2.31.69-2.28.69-2.23.73-2.19.77-2.14.79-2.09.83-2,.86-2,.87-1.95.91-1.48.74-.17.08-.48.24-.8.43L265,211l-.28.17-1.34.75-.17.08-1.4.83-.34.21-1.36.87-.33.2-1.5,1-.16.1-1.59,1.18-.14.1h0l-.14-.1-1.61-1.18L253,214.08,251.27,213l-1.75-1-1.78-1-1.85-1-.41-.2-1.5-.74-1.93-.91-2-.87-2-.86-2.09-.83-2.16-.79-2.17-.77-2.23-.73-2.28-.69-2.31-.69-2.38-.63-2.4-.61-2.43-.57-2.5-.55-2.52-.51-2.56-.47-2.6-.44-2.64-.41-2.68-.36-2.7-.33-2.74-.28-2.77-.27-2.82-.22-2.82-.16-2.89-.15-2.88-.1-2.95-.06-2.94,0h-3l-3,.08-3,.1-3.07.15-3.08.18-3.11.22-3.13.29-3.15.32-3.17.37-3.16.4-3.21.45-3.23.51-3.25.55-3.25.61-3.27.63-3.29.69-3.29.75-3.31.79-3.33.83-3.34.9.94,3.33,1,3.27,1,3.25,1,3.23,1.1,3.17,1.12,3.14,1.14,3.11,1.17,3.07,1.22,3,1.24,3,1.28,2.94,1.3,2.93,1.34,2.86,1.36,2.83,1.38,2.8,1.43,2.74,1.42,2.7,1.46,2.66,1.48,2.62,1.51,2.58,1.52,2.52,1.56,2.5,1.57,2.44,1.58,2.39,1.61,2.34,1.6,2.32,1.64,2.25,1.65,2.19L152.2,285l1.68,2.11,1.69,2.05,1.7,2,1.73,2,.45.49,1.28,1.42,1.72,1.87,1.75,1.81,1.75,1.74,1.76,1.71,1.75,1.64,1.77,1.61,1.76,1.54,1.79,1.49,1.77,1.44,1.79,1.38,1.76,1.32,1.79,1.26,1.77,1.22,1.78,1.13,1.77,1.1,1.77,1,1.77,1,1.8.92,1.81.83,1.81.79,1.85.71,1.85.65,1.84.59,1.87.53,1.89.47,1.87.42,1.89.35,1.91.26,1.89.25,1.89.16,1.88.1,1.91,0h1.89l1.89-.08,1.87-.12,1.89-.21,1.85-.24,1.87-.28,1.84-.37,1.83-.41,1.81-.46,1.81-.53,1.78-.59,1.77-.63,1.75-.69,1.72-.73,1.2-.57v60.12l0,1.18-.06,1.07-.08,1.06-.12,1.06-.14,1-.21,1-.2,1-.24,1-.29,1-.3,1-.35.95-.36,1-.39.93-.43.92-.44.91-.49.89-.51.88-.53.85-.54.83-.59.82-.59.81-.65.77-.65.77-.67.73-.69.73-.73.69-.74.68-.77.65-.77.62-.81.61-.81.59-.84.55-.85.53-.87.51-.9.48-.91.45-.91.43-.94.38-1,.37-1,.34-1,.31-1,.28-1,.25-1,.22-1,.18-1.06.15-1.06.12-1.05.08-1.08.06-1.18,0H101.2l-3-3.94-3.49-4.92-3.33-5L88.2,394.3l-3-5.24-2.86-5.36-2.71-5.43-2.55-5.54-2.38-5.63-2.19-5.7-2-5.81L68.6,349.7l-1.67-5.95-1.48-6-1.3-6.11L63,325.43l-.91-6.26-.71-6.3-.51-6.37-.31-6.42-.12-6.48.12-6.48.31-6.42.51-6.38.71-6.29.91-6.26,1.12-6.17,1.3-6.12,1.48-6,1.67-5.95,1.84-5.89,2-5.81,2.19-5.71,2.38-5.62,2.55-5.55,2.71-5.42,2.86-5.36,3-5.24,3.19-5.12,3.33-5,3.49-4.91,3-3.94.12-.17.36-.48.17-.21.46-.59.9-1.09,1.07-1.34,1.24-1.55.1-.12,1.38-1.6,1.57-1.83,1-1.14.69-.75,1.73-1.91,1.62-1.79,4.19-4.3,3-2.89,1.34-1.3,4.43-4.06,4.57-3.92,4.69-3.76,4.8-3.63,4.91-3.49,5-3.34,5.14-3.18,5.24-3,5.34-2.89,5.44-2.7,5.53-2.54,5.62-2.37,5.73-2.22,5.79-2,5.89-1.84,5.95-1.69,6.05-1.48,6.1-1.3,6.19-1.1,6.24-.91,6.31-.71,6.36-.53,6.44-.31,6.46-.1,6.48.1,6.44.31,6.35.53,6.32.71,6.24.91,6.17,1.1,6.11,1.3,6,1.48,6,1.69,5.87,1.84,5.81,2,5.72,2.22,5.61,2.37,5.55,2.54,5.44,2.7,5.34,2.89,5.24,3,5.14,3.18,5,3.34,4.91,3.49,4.81,3.63,4.7,3.76,4.55,3.92,4.44,4.06,1.34,1.3,3,2.89,4.18,4.3,1.63,1.79,1.73,1.91.69.75,1,1.14,1.57,1.83,1.38,1.6.1.12,1.24,1.55,1.07,1.34.9,1.09.46.59.17.21.36.48.12.17,3,3.94,3.47,4.91,3.35,5,3.17,5.12,3.05,5.24,2.86,5.36,2.7,5.42,2.54,5.55,2.38,5.62,2.21,5.71,2,5.81,1.85,5.89,1.67,5.95,1.48,6,1.3,6.12,1.1,6.17.91,6.26.73,6.29.51,6.38.31,6.42.1,6.48Z" style="fill: #81c56d;stroke: #231f20;stroke-linecap: round;stroke-linejoin: round"/>
</svg>
